<?xml version="1.0" encoding="UTF-8" standalone="no"?>
<!-- Created with Inkscape (http://www.inkscape.org/) -->

<svg
   width="79.778931"
   height="64.358315"
   viewBox="0 0 21.108175 17.028138"
   version="1.1"
   id="svg19514"
   xmlns="http://www.w3.org/2000/svg"
   xmlns:svg="http://www.w3.org/2000/svg">
  <defs
     id="defs19511" />
  <g
     id="layer1"
     transform="translate(-102.1677,-118.12472)">
    <g
       id="g18835"
       transform="matrix(0.35277777,0,0,-0.35277777,110.43758,120.08819)">
      <path
         d="m 0,0 c -1.596,-1.409 -2.985,-3.062 -4.196,-4.809 -1.664,-2.403 -2.869,-5.065 -3.865,-7.802 -0.924,-2.539 -1.716,-5.853 1.323,-7.32 1.075,-0.518 2.235,-0.579 3.373,-0.224 1.546,0.482 2.877,1.472 4.095,2.51 1.229,1.047 2.415,2.151 3.502,3.345 1.873,2.052 3.303,4.442 4.867,6.726 1.602,2.342 3.281,4.642 5.22,6.717 0.67,0.718 1.442,1.387 1.943,2.272 -0.292,0.26 -0.603,0.487 -0.925,0.688 -1.23,0.768 -2.592,1.21 -4.002,1.398 C 9.208,3.785 6.977,3.492 4.945,2.877 3.092,2.315 1.445,1.272 0,0 M 9.359,0.207 C 7.54,-1.162 5.923,-2.722 4.379,-4.388 c -2.305,-2.487 -4.433,-5.347 -6.022,-8.349 -0.783,-1.475 -1.616,-3.526 -2.987,-4.537 -0.311,-0.229 -0.478,-0.23 -0.547,-0.088 -0.239,0.493 0.681,2.681 0.852,3.036 0.526,1.084 1.165,2.112 1.803,3.134 2.014,3.221 4.811,5.914 7.718,8.326 1.337,1.109 2.782,2.035 4.163,3.073"
         style="fill:#40855c;fill-opacity:1;fill-rule:nonzero;stroke:none"
         id="path18837" />
    </g>
    <g
       id="g18839"
       transform="matrix(0.35277777,0,0,-0.35277777,109.54527,128.0332)">
      <path
         d="m 0,0 c -1.108,-0.438 -1.971,-1.216 -2.481,-2.294 -1.443,-3.05 1.256,-5.131 3.568,-6.525 2.495,-1.503 5.107,-2.819 7.909,-3.641 2.041,-0.599 4.159,-1.012 6.287,-1.104 1.925,-0.082 3.861,0.141 5.655,0.869 1.967,0.798 3.886,1.972 5.363,3.53 0.977,1.031 1.76,2.231 2.235,3.601 0.124,0.359 0.224,0.731 0.288,1.116 -0.948,0.375 -1.968,0.41 -2.941,0.547 C 23.07,-3.505 20.32,-2.77 17.604,-1.956 14.952,-1.161 12.336,-0.2 9.589,0.22 7.994,0.464 6.377,0.578 4.763,0.62 3.163,0.664 1.506,0.597 0,0 m 0.766,-2.866 c 1.702,0.076 3.64,-0.995 5.176,-1.653 3.122,-1.335 6.574,-2.223 9.93,-2.709 2.249,-0.326 4.487,-0.526 6.761,-0.444 C 20.908,-7.735 19.201,-7.922 17.464,-7.9 13.687,-7.848 9.818,-7.512 6.228,-6.272 5.09,-5.877 3.947,-5.481 2.856,-4.966 2.5,-4.799 0.408,-3.674 0.287,-3.141 0.25,-2.987 0.38,-2.883 0.766,-2.866"
         style="fill:#40855c;fill-opacity:1;fill-rule:nonzero;stroke:none"
         id="path18841" />
    </g>
    <g
       id="g18843"
       transform="matrix(0.35277777,0,0,-0.35277777,117.54994,121.58996)">
      <path
         d="m 0,0 c -3.537,-1.409 -8.155,-5.996 -7.224,-10.255 0.011,0.006 0.022,0.01 0.032,0.017 0.156,-0.6 0.327,-1.192 0.563,-1.766 l 0.096,-0.024 c -0.02,-0.003 -0.038,-0.007 -0.057,-0.01 1.952,-3.9 8.37,-4.519 12.006,-3.392 3.587,1.112 6.088,4.06 7.916,7.2 0.23,0.397 1.714,3.454 2.445,4.725 0.136,0.177 0.28,0.388 0.416,0.565 -0.007,-0.008 -0.017,0.061 -0.047,0.066 0.021,0.02 0.075,0.177 0.085,0.174 -0.216,0.053 -0.431,0.107 -0.648,0.158 -1.414,0.344 -4.464,1.826 -4.892,1.989 C 7.297,0.741 3.487,1.389 0,0 m 7.292,-5.569 c 1.328,0.213 2.675,0.283 4.011,0.44 C 9.54,-5.335 7.864,-5.725 6.206,-6.2 3.73,-6.909 1.259,-7.897 -0.867,-9.15 c -1.045,-0.614 -2.315,-1.552 -3.636,-1.698 -0.3,-0.032 -0.422,0.024 -0.425,0.131 -0.012,0.37 1.365,1.362 1.605,1.515 0.732,0.469 1.529,0.865 2.323,1.258 2.504,1.241 5.404,1.91 8.292,2.375"
         style="fill:#40855c;fill-opacity:1;fill-rule:nonzero;stroke:none"
         id="path18845" />
    </g>
    <g
       id="g18847"
       transform="matrix(0.35277777,0,0,-0.35277777,102.1677,124.89753)">
      <path
         d="m 0,0 c 1.263,2.403 3.031,4.722 4.552,6.873 1.633,2.31 3.58,4.501 5.6,6.486 C 8.619,11.853 6.675,10.474 5.208,8.887 3.473,7.01 1.895,5.032 0,2.93 v 10.31 c 3.79,3.181 8.084,5.365 12.991,5.837 1.676,0.159 3.766,0.221 5.461,-0.19 0.439,-0.11 0.972,-0.248 1.379,-0.426 -0.482,-1.036 -1.287,-1.937 -2.01,-2.859 C 13.466,10.062 10.17,3.59 6.404,-2.335 5.174,-4.271 3.158,-7.911 0,-10.653 Z"
         style="fill:#40855c;fill-opacity:1;fill-rule:nonzero;stroke:none"
         id="path18849" />
    </g>
    <g
       id="g18851"
       transform="matrix(0.35277777,0,0,-0.35277777,102.1677,133.04473)">
      <path
         d="m 0,0 c 0.632,-0.37 1.312,-0.666 1.464,-0.764 1.262,-0.813 2.815,-1.519 4.156,-2.192 2.782,-1.396 5.988,-2.386 9.037,-3.019 H 1.18 c -0.12,0 -0.548,0.252 -1.18,0.347 z"
         style="fill:#40855c;fill-opacity:1;fill-rule:nonzero;stroke:none"
         id="path18853" />
    </g>
    <g
       id="g18855"
       transform="matrix(0.35277777,0,0,-0.35277777,102.1677,132.36803)">
      <path
         d="M 0,0 V 3.825 C 5.684,3.98 10.474,1.89 13.229,0.961 19.882,-1.28 26.418,-4.491 33.287,-6.064 34.428,-6.325 35.766,-6.521 36.792,-7.022 36.64,-7.313 36.564,-7.894 36.371,-7.894 H 18.422 c -0.283,0 -0.568,0.176 -0.85,0.257 C 13.51,-6.487 8.979,-4.81 5.347,-2.649 3.891,-1.784 1.895,-0.535 0,0"
         style="fill:#40855c;fill-opacity:1;fill-rule:nonzero;stroke:none"
         id="path18857" />
    </g>
  </g>
</svg>
