<?xml version="1.0" encoding="UTF-8" standalone="no"?>
<!-- Created with Inkscape (http://www.inkscape.org/) -->

<svg
   width="106"
   height="93"
   viewBox="0 0 28.045833 24.606251"
   version="1.1"
   id="svg17757"
   inkscape:version="1.1.2 (b8e25be833, 2022-02-05)"
   sodipodi:docname="green-leaf-logo.svg"
   xmlns:inkscape="http://www.inkscape.org/namespaces/inkscape"
   xmlns:sodipodi="http://sodipodi.sourceforge.net/DTD/sodipodi-0.dtd"
   xmlns="http://www.w3.org/2000/svg"
   xmlns:svg="http://www.w3.org/2000/svg">
  <sodipodi:namedview
     id="namedview17759"
     pagecolor="#ffffff"
     bordercolor="#666666"
     borderopacity="1.0"
     inkscape:pageshadow="2"
     inkscape:pageopacity="0.0"
     inkscape:pagecheckerboard="0"
     inkscape:document-units="mm"
     showgrid="false"
     units="px"
     inkscape:zoom="4.0718557"
     inkscape:cx="36.961034"
     inkscape:cy="82.88604"
     inkscape:window-width="1920"
     inkscape:window-height="1001"
     inkscape:window-x="-9"
     inkscape:window-y="-9"
     inkscape:window-maximized="1"
     inkscape:current-layer="g17824">
    <sodipodi:guide
       position="0,24.60625"
       orientation="0,106"
       id="guide18039" />
    <sodipodi:guide
       position="28.045834,24.60625"
       orientation="93,0"
       id="guide18041" />
    <sodipodi:guide
       position="28.045834,0"
       orientation="0,-106"
       id="guide18043" />
    <sodipodi:guide
       position="0,0"
       orientation="-93,0"
       id="guide18045" />
  </sodipodi:namedview>
  <defs
     id="defs17754">
    <clipPath
       clipPathUnits="userSpaceOnUse"
       id="clipPath17834">
      <path
         d="M 0,573 H 798 V 0 H 0 Z"
         id="path17832" />
    </clipPath>
  </defs>
  <g
     inkscape:label="Warstwa 1"
     inkscape:groupmode="layer"
     id="layer1">
    <g
       id="g17824"
       inkscape:label="Green Leaf Power Logo"
       transform="matrix(0.35277777,0,0,-0.35277777,-87.460063,137.46068)">
      <g
         id="g17828"
         transform="matrix(0.25971311,0,0,0.25971311,151.33415,364.08563)">
        <g
           id="g17830"
           clip-path="url(#clipPath17834)"
           transform="translate(130.24285,-340.7153)">
          <g
             id="g17836"
             transform="translate(252.5664,255.8584)">
            <path
               d="m 0,0 c 0,-1.628 0.293,-3.135 0.881,-4.513 0.588,-1.38 1.39,-2.579 2.41,-3.593 1.018,-1.018 2.202,-1.822 3.562,-2.409 1.356,-0.588 2.801,-0.883 4.342,-0.883 1.807,0 3.413,0.315 4.817,0.951 1.4,0.631 2.59,1.477 3.562,2.544 0.973,1.061 1.706,2.282 2.204,3.662 0.497,1.382 0.747,2.84 0.747,4.378 0,1.718 -0.272,3.29 -0.814,4.716 -0.544,1.424 -1.311,2.657 -2.308,3.699 -0.993,1.038 -2.194,1.839 -3.595,2.404 -1.402,0.566 -2.941,0.851 -4.613,0.851 -1.675,0 -3.202,-0.305 -4.582,-0.918 C 5.232,10.281 4.057,9.443 3.086,8.38 2.111,7.315 1.354,6.073 0.814,4.649 0.271,3.225 0,1.67 0,0 m 27.816,-14.451 c 0,-5.79 -1.481,-10.187 -4.445,-13.197 -2.959,-3.01 -7.247,-4.514 -12.855,-4.514 -3.121,0 -5.938,0.453 -8.448,1.358 -2.511,0.906 -4.896,2.465 -7.16,4.683 l 3.804,4.343 c 1.67,-1.809 3.445,-3.177 5.323,-4.108 1.878,-0.924 4.037,-1.388 6.481,-1.388 2.351,0 4.308,0.348 5.869,1.05 1.559,0.702 2.793,1.65 3.696,2.849 0.903,1.201 1.538,2.569 1.901,4.104 0.362,1.539 0.543,3.145 0.543,4.82 v 4.071 H 22.39 c -1.267,-2.037 -2.918,-3.529 -4.953,-4.48 -2.037,-0.949 -4.117,-1.421 -6.242,-1.421 -2.488,0 -4.775,0.405 -6.853,1.218 -2.082,0.814 -3.869,1.944 -5.362,3.393 -1.493,1.447 -2.646,3.164 -3.46,5.155 -0.815,1.991 -1.219,4.164 -1.219,6.515 0,2.578 0.404,4.909 1.219,6.989 0.814,2.08 1.958,3.832 3.425,5.26 1.473,1.423 3.246,2.52 5.328,3.29 2.081,0.768 4.388,1.153 6.922,1.153 1.083,0 2.168,-0.126 3.256,-0.373 1.086,-0.25 2.135,-0.634 3.156,-1.154 1.018,-0.52 1.932,-1.178 2.748,-1.968 0.812,-0.79 1.491,-1.708 2.035,-2.748 h 0.135 v 5.429 h 5.291 z"
               style="fill:#265352;fill-opacity:1;fill-rule:nonzero;stroke:none"
               id="path17838" />
          </g>
          <g
             id="g17840"
             transform="translate(289.4756,264.2051)">
            <path
               d="m 0,0 c 0,1.447 -0.046,2.804 -0.135,4.071 -0.091,1.265 -0.136,2.418 -0.136,3.46 H 4.747 C 4.747,6.672 4.771,5.812 4.819,4.951 4.862,4.094 4.886,3.21 4.886,2.305 h 0.135 c 0.361,0.77 0.869,1.518 1.526,2.241 0.657,0.723 1.438,1.367 2.343,1.933 0.904,0.567 1.92,1.018 3.051,1.357 1.132,0.34 2.351,0.51 3.664,0.51 0.363,0 0.725,-0.025 1.086,-0.067 0.362,-0.049 0.723,-0.136 1.086,-0.271 L 17.438,2.646 c -0.906,0.27 -1.856,0.408 -2.851,0.408 -3.256,0 -5.62,-1.052 -7.09,-3.156 C 6.024,-2.204 5.294,-5.089 5.294,-8.752 V -24.223 H 0 Z"
               style="fill:#265352;fill-opacity:1;fill-rule:nonzero;stroke:none"
               id="path17842" />
          </g>
          <g
             id="g17844"
             transform="translate(335.2754,258.709)">
            <path
               d="m 0,0 c -0.093,2.713 -0.973,4.887 -2.647,6.515 -1.674,1.628 -3.98,2.441 -6.919,2.441 -2.942,0 -5.317,-0.813 -7.123,-2.441 C -18.502,4.887 -19.588,2.714 -19.947,0 Z m 4.546,-12.961 c -1.901,-2.441 -3.982,-4.147 -6.241,-5.122 -2.263,-0.969 -4.887,-1.458 -7.871,-1.458 -2.49,0 -4.728,0.441 -6.719,1.323 -1.99,0.881 -3.674,2.07 -5.055,3.564 -1.38,1.491 -2.442,3.256 -3.187,5.289 -0.749,2.038 -1.119,4.208 -1.119,6.514 0,2.444 0.405,4.692 1.219,6.75 0.814,2.059 1.944,3.824 3.394,5.294 1.445,1.471 3.164,2.612 5.157,3.428 1.987,0.812 4.159,1.221 6.513,1.221 2.215,0 4.25,-0.373 6.107,-1.121 1.853,-0.746 3.447,-1.832 4.783,-3.257 1.332,-1.426 2.362,-3.166 3.084,-5.225 0.725,-2.056 1.09,-4.396 1.09,-7.02 v -1.698 h -25.648 c 0.088,-1.357 0.416,-2.657 0.981,-3.899 0.568,-1.248 1.302,-2.331 2.206,-3.26 0.906,-0.926 1.968,-1.66 3.189,-2.204 1.222,-0.542 2.556,-0.812 4.005,-0.812 2.304,0 4.25,0.405 5.833,1.22 1.584,0.813 3.008,2.01 4.275,3.596 z"
               style="fill:#265352;fill-opacity:1;fill-rule:nonzero;stroke:none"
               id="path17846" />
          </g>
          <g
             id="g17848"
             transform="translate(372.3223,258.709)">
            <path
               d="m 0,0 c -0.092,2.713 -0.973,4.887 -2.647,6.515 -1.675,1.628 -3.982,2.441 -6.92,2.441 -2.941,0 -5.315,-0.813 -7.124,-2.441 C -18.502,4.887 -19.587,2.713 -19.949,0 Z m 4.546,-12.961 c -1.901,-2.441 -3.98,-4.147 -6.243,-5.122 -2.261,-0.969 -4.884,-1.458 -7.87,-1.458 -2.49,0 -4.727,0.441 -6.717,1.323 -1.993,0.881 -3.675,2.07 -5.055,3.564 -1.382,1.491 -2.442,3.256 -3.188,5.289 -0.748,2.038 -1.121,4.208 -1.121,6.514 0,2.444 0.406,4.692 1.222,6.75 0.813,2.059 1.944,3.824 3.393,5.294 1.446,1.471 3.164,2.612 5.157,3.428 1.989,0.812 4.159,1.221 6.511,1.221 2.217,0 4.252,-0.373 6.107,-1.121 C -1.403,11.975 0.189,10.889 1.525,9.464 2.861,8.038 3.891,6.298 4.613,4.239 5.336,2.183 5.699,-0.157 5.699,-2.781 v -1.698 h -25.648 c 0.092,-1.357 0.418,-2.657 0.985,-3.899 0.564,-1.249 1.3,-2.331 2.204,-3.26 0.905,-0.926 1.969,-1.66 3.191,-2.204 1.218,-0.542 2.554,-0.812 4.002,-0.812 2.306,0 4.253,0.405 5.834,1.22 1.584,0.813 3.008,2.01 4.276,3.596 z"
               style="fill:#265352;fill-opacity:1;fill-rule:nonzero;stroke:none"
               id="path17850" />
          </g>
          <g
             id="g17852"
             transform="translate(385.5527,264.2051)">
            <path
               d="M 0,0 C 0,1.447 -0.044,2.803 -0.137,4.071 -0.225,5.336 -0.27,6.489 -0.27,7.531 H 4.75 C 4.75,6.672 4.771,5.812 4.818,4.951 4.859,4.094 4.885,3.21 4.885,2.305 h 0.136 c 0.362,0.77 0.87,1.518 1.528,2.241 0.654,0.723 1.437,1.367 2.342,1.933 0.904,0.567 1.92,1.016 3.05,1.357 1.131,0.34 2.354,0.51 3.666,0.51 2.079,0 3.877,-0.319 5.394,-0.951 1.517,-0.633 2.769,-1.515 3.767,-2.645 0.992,-1.135 1.729,-2.5 2.204,-4.105 0.474,-1.607 0.712,-3.36 0.712,-5.258 v -19.611 h -5.292 v 19.067 c 0,2.668 -0.59,4.772 -1.763,6.31 C 19.451,2.69 17.617,3.46 15.131,3.46 13.412,3.46 11.93,3.166 10.687,2.579 9.443,1.987 8.424,1.153 7.632,0.067 6.842,-1.018 6.252,-2.309 5.871,-3.801 5.484,-5.294 5.294,-6.943 5.294,-8.752 V -24.224 H 0 Z"
               style="fill:#265352;fill-opacity:1;fill-rule:nonzero;stroke:none"
               id="path17854" />
          </g>
          <path
             d="m 434.973,291.277 h 5.294 v -51.296 h -5.294 z"
             style="fill:#265352;fill-opacity:1;fill-rule:nonzero;stroke:none"
             id="path17856" />
          <g
             id="g17858"
             transform="translate(475.7061,258.709)">
            <path
               d="m 0,0 c -0.093,2.713 -0.976,4.885 -2.647,6.515 -1.674,1.628 -3.983,2.441 -6.92,2.441 -2.942,0 -5.317,-0.813 -7.124,-2.441 C -18.502,4.885 -19.585,2.713 -19.95,0 Z m 4.544,-12.961 c -1.898,-2.441 -3.981,-4.147 -6.242,-5.122 -2.263,-0.969 -4.884,-1.458 -7.869,-1.458 -2.489,0 -4.729,0.441 -6.72,1.323 -1.989,0.881 -3.674,2.068 -5.055,3.564 -1.378,1.491 -2.44,3.256 -3.186,5.289 -0.747,2.038 -1.118,4.208 -1.118,6.514 0,2.444 0.405,4.692 1.219,6.75 0.814,2.059 1.944,3.824 3.392,5.294 1.45,1.471 3.168,2.612 5.158,3.427 1.988,0.813 4.159,1.222 6.512,1.222 2.216,0 4.251,-0.373 6.107,-1.121 C -1.403,11.975 0.193,10.889 1.524,9.464 2.86,8.038 3.888,6.297 4.613,4.239 5.336,2.183 5.699,-0.157 5.699,-2.781 V -4.479 H -19.95 c 0.091,-1.357 0.419,-2.657 0.983,-3.899 0.567,-1.247 1.303,-2.331 2.207,-3.26 0.903,-0.926 1.966,-1.66 3.189,-2.204 1.222,-0.542 2.553,-0.812 4.004,-0.812 2.305,0 4.251,0.405 5.834,1.22 1.583,0.813 3.009,2.01 4.275,3.596 z"
               style="fill:#265352;fill-opacity:1;fill-rule:nonzero;stroke:none"
               id="path17860" />
          </g>
          <g
             id="g17862"
             transform="translate(504.7578,255.2471)">
            <path
               d="m 0,0 c -3.396,0 -6.086,-0.475 -8.075,-1.426 -1.993,-0.948 -2.988,-2.509 -2.988,-4.68 0,-1.991 0.669,-3.402 2.002,-4.24 1.335,-0.837 2.997,-1.257 4.988,-1.257 1.54,0 2.884,0.261 4.036,0.782 1.155,0.517 2.117,1.209 2.888,2.069 0.764,0.857 1.355,1.866 1.762,3.02 0.408,1.153 0.633,2.385 0.678,3.697 V 0 Z m -15.337,12.418 c 1.628,1.674 3.563,2.907 5.803,3.697 2.238,0.79 4.51,1.189 6.818,1.189 4.704,0 8.097,-1.109 10.178,-3.327 2.08,-2.216 3.12,-5.584 3.12,-10.109 V -9.769 c 0,-0.905 0.046,-1.843 0.138,-2.817 0.091,-0.973 0.203,-1.865 0.339,-2.68 h -5.09 c -0.183,0.723 -0.283,1.528 -0.304,2.41 -0.024,0.879 -0.034,1.664 -0.034,2.341 H 5.493 c -1.04,-1.63 -2.431,-2.965 -4.17,-4.004 -1.742,-1.041 -3.837,-1.56 -6.277,-1.56 -1.628,0 -3.157,0.202 -4.58,0.611 -1.423,0.405 -2.67,1.006 -3.732,1.798 -1.061,0.788 -1.911,1.774 -2.544,2.95 -0.632,1.176 -0.952,2.533 -0.952,4.072 0,2.622 0.68,4.68 2.037,6.173 1.357,1.494 3.04,2.603 5.054,3.324 2.016,0.726 4.184,1.178 6.517,1.361 2.327,0.179 4.464,0.269 6.408,0.269 h 2.037 v 0.948 c 0,2.308 -0.69,4.05 -2.069,5.226 -1.38,1.176 -3.315,1.765 -5.803,1.765 -1.721,0 -3.402,-0.284 -5.055,-0.851 -1.65,-0.565 -3.109,-1.433 -4.375,-2.609 z"
               style="fill:#265352;fill-opacity:1;fill-rule:nonzero;stroke:none"
               id="path17864" />
          </g>
          <g
             id="g17866"
             transform="translate(527.9697,267.2578)">
            <path
               d="M 0,0 H -6.919 V 4.479 H 0 v 7.123 c 0,1.943 0.183,3.722 0.547,5.326 0.358,1.606 0.98,2.998 1.865,4.174 0.88,1.174 2.044,2.09 3.494,2.748 1.447,0.655 3.233,0.985 5.359,0.985 0.679,0 1.404,-0.071 2.172,-0.206 0.77,-0.135 1.402,-0.338 1.9,-0.609 l -0.748,-4.749 c -1.266,0.449 -2.466,0.677 -3.596,0.677 -1.356,0 -2.42,-0.235 -3.187,-0.712 C 7.035,18.76 6.458,18.105 6.073,17.266 5.689,16.432 5.463,15.424 5.396,14.249 5.328,13.072 5.294,11.806 5.294,10.448 V 4.479 h 7.735 V 0 H 5.294 V -27.276 H 0 Z"
               style="fill:#265352;fill-opacity:1;fill-rule:nonzero;stroke:none"
               id="path17868" />
          </g>
          <g
             id="g17870"
             transform="translate(308.915,211.9482)">
            <path
               d="m 0,0 c 0,-1.674 0.261,-3.223 0.781,-4.646 0.519,-1.425 1.276,-2.67 2.273,-3.734 0.994,-1.062 2.181,-1.898 3.563,-2.51 1.378,-0.607 2.927,-0.914 4.648,-0.914 1.717,0 3.265,0.307 4.647,0.914 1.379,0.612 2.566,1.448 3.563,2.51 0.995,1.064 1.751,2.309 2.272,3.734 0.52,1.423 0.781,2.972 0.781,4.646 0,1.673 -0.261,3.225 -0.781,4.649 -0.521,1.424 -1.277,2.668 -2.272,3.731 -0.997,1.063 -2.184,1.901 -3.563,2.511 -1.382,0.613 -2.93,0.914 -4.647,0.914 -1.721,0 -3.27,-0.301 -4.648,-0.914 C 5.235,10.281 4.048,9.443 3.054,8.38 2.057,7.317 1.3,6.073 0.781,4.649 0.261,3.225 0,1.673 0,0 M -5.29,15.878 H 0 v -4.615 h 0.136 c 1.448,1.719 3.133,3.054 5.056,4.006 1.922,0.949 4.037,1.425 6.345,1.425 2.484,0 4.757,-0.422 6.816,-1.257 2.06,-0.838 3.81,-2.002 5.259,-3.497 C 25.06,10.449 26.19,8.687 27.007,6.651 27.819,4.617 28.226,2.397 28.226,0 c 0,-2.398 -0.407,-4.611 -1.219,-6.65 -0.817,-2.033 -1.935,-3.796 -3.36,-5.292 -1.425,-1.49 -3.111,-2.657 -5.056,-3.495 -1.944,-0.834 -4.027,-1.251 -6.24,-1.251 -2.852,0 -5.352,0.622 -7.5,1.863 -2.147,1.244 -3.721,2.771 -4.715,4.582 H 0 v -21.103 h -5.29 z"
               style="fill:#265352;fill-opacity:1;fill-rule:nonzero;stroke:none"
               id="path17872" />
          </g>
          <g
             id="g17874"
             transform="translate(348.541,211.9482)">
            <path
               d="m 0,0 c 0,-1.674 0.258,-3.223 0.781,-4.646 0.518,-1.425 1.278,-2.67 2.272,-3.734 0.994,-1.062 2.181,-1.898 3.562,-2.51 1.379,-0.607 2.927,-0.914 4.647,-0.914 1.718,0 3.267,0.307 4.647,0.914 1.382,0.612 2.568,1.448 3.564,2.51 0.994,1.064 1.753,2.309 2.273,3.734 0.518,1.423 0.779,2.972 0.779,4.646 0,1.673 -0.261,3.225 -0.779,4.649 -0.52,1.424 -1.279,2.668 -2.273,3.731 -0.996,1.063 -2.182,1.901 -3.564,2.511 -1.38,0.613 -2.929,0.914 -4.647,0.914 -1.72,0 -3.268,-0.301 -4.647,-0.914 C 5.234,10.281 4.047,9.443 3.053,8.38 2.059,7.317 1.299,6.073 0.781,4.649 0.258,3.225 0,1.673 0,0 m -5.699,0 c 0,2.487 0.428,4.75 1.287,6.786 0.861,2.035 2.035,3.787 3.528,5.258 1.493,1.471 3.28,2.613 5.363,3.427 2.08,0.816 4.341,1.223 6.783,1.223 2.443,0 4.707,-0.407 6.787,-1.223 2.078,-0.814 3.865,-1.956 5.358,-3.427 1.495,-1.471 2.669,-3.223 3.53,-5.258 0.86,-2.036 1.288,-4.299 1.288,-6.786 0,-2.487 -0.428,-4.75 -1.288,-6.785 -0.861,-2.033 -2.035,-3.786 -3.53,-5.257 -1.493,-1.472 -3.28,-2.61 -5.358,-3.426 -2.08,-0.815 -4.344,-1.22 -6.787,-1.22 -2.442,0 -4.703,0.405 -6.783,1.22 -2.083,0.816 -3.87,1.954 -5.363,3.426 -1.493,1.471 -2.667,3.224 -3.528,5.257 -0.859,2.035 -1.287,4.3 -1.287,6.785"
               style="fill:#265352;fill-opacity:1;fill-rule:nonzero;stroke:none"
               id="path17876" />
          </g>
          <g
             id="g17878"
             transform="translate(418.3574,196.0732)">
            <path
               d="m 0,0 h -5.223 l -9.025,24.426 h -0.135 L -22.391,0 h -5.427 l -10.311,31.753 h 5.834 l 7.259,-24.426 h 0.136 l 8.211,24.426 h 5.562 L -2.779,7.327 h 0.134 l 7.194,24.426 h 5.699 z"
               style="fill:#265352;fill-opacity:1;fill-rule:nonzero;stroke:none"
               id="path17880" />
          </g>
          <g
             id="g17882"
             transform="translate(458.6064,214.7988)">
            <path
               d="m 0,0 c -0.092,2.715 -0.975,4.885 -2.646,6.513 -1.674,1.63 -3.983,2.441 -6.921,2.441 -2.941,0 -5.317,-0.811 -7.124,-2.441 C -18.503,4.885 -19.586,2.715 -19.948,0 Z m 4.544,-12.961 c -1.898,-2.441 -3.979,-4.147 -6.241,-5.12 -2.264,-0.971 -4.884,-1.458 -7.87,-1.458 -2.489,0 -4.727,0.439 -6.717,1.322 -1.99,0.88 -3.678,2.067 -5.055,3.563 -1.381,1.493 -2.443,3.256 -3.191,5.289 -0.745,2.038 -1.116,4.208 -1.116,6.514 0,2.442 0.404,4.694 1.22,6.75 0.815,2.061 1.943,3.824 3.393,5.294 1.447,1.471 3.164,2.614 5.156,3.427 1.988,0.815 4.159,1.223 6.513,1.223 2.215,0 4.253,-0.374 6.105,-1.118 1.857,-0.75 3.45,-1.836 4.785,-3.26 C 2.859,8.04 3.887,6.297 4.614,4.24 5.337,2.181 5.699,-0.159 5.699,-2.781 v -1.698 h -25.647 c 0.088,-1.357 0.417,-2.657 0.985,-3.901 0.563,-1.245 1.298,-2.331 2.204,-3.258 0.903,-0.926 1.967,-1.659 3.188,-2.204 1.222,-0.542 2.556,-0.812 4.004,-0.812 2.305,0 4.251,0.407 5.834,1.218 1.584,0.817 3.008,2.016 4.276,3.598 z"
               style="fill:#265352;fill-opacity:1;fill-rule:nonzero;stroke:none"
               id="path17884" />
          </g>
          <g
             id="g17886"
             transform="translate(472.7295,220.2949)">
            <path
               d="m 0,0 c 0,1.447 -0.045,2.803 -0.136,4.073 -0.09,1.263 -0.136,2.418 -0.136,3.458 h 5.023 c 0,-0.859 0.02,-1.72 0.067,-2.58 C 4.864,4.094 4.886,3.214 4.886,2.307 h 0.135 c 0.363,0.77 0.871,1.516 1.527,2.239 0.655,0.723 1.436,1.367 2.342,1.933 0.903,0.567 1.921,1.019 3.052,1.357 1.131,0.34 2.352,0.511 3.663,0.511 0.362,0 0.724,-0.026 1.086,-0.068 0.361,-0.049 0.723,-0.138 1.085,-0.273 l -0.337,-5.36 c -0.905,0.27 -1.858,0.407 -2.85,0.407 -3.256,0 -5.621,-1.051 -7.091,-3.156 C 6.027,-2.206 5.294,-5.09 5.294,-8.752 v -15.47 H 0 Z"
               style="fill:#265352;fill-opacity:1;fill-rule:nonzero;stroke:none"
               id="path17888" />
          </g>
          <g
             id="g17890"
             transform="translate(449.7842,341.3447)">
            <path
               d="m 0,0 c -2.614,-10.818 -9.761,-20.367 -19.112,-25.545 -8.303,-4.597 -17.473,-6.655 -26.82,-4.555 -4.458,1.002 -9.024,2.33 -13.038,4.555 -9.353,5.178 -16.496,14.727 -19.113,25.545 -1.825,7.55 -1.246,14.984 1.59,21.435 0,0 20.707,33.981 21.946,36.074 3.869,6.544 7.747,13.083 11.76,19.539 0.745,1.195 1.225,2.678 2.489,3.457 1.759,1.087 3.25,-0.655 4.1,-2.012 4.351,-6.958 21.17,-35.225 21.17,-35.225 C -11.511,37.474 -1.349,20.867 -1.349,20.867 1.277,14.55 1.774,7.33 0,0 m -0.05,28.814 c -6.783,10.118 -13.129,20.839 -19.264,31.211 -5.796,9.793 -11.79,19.919 -18.169,29.577 l -0.03,-0.019 -1.517,2.3 -1.511,-2.32 -0.055,0.039 C -46.981,79.938 -52.977,69.809 -58.772,60.009 -64.908,49.644 -71.25,38.929 -78.029,28.814 -83.752,20.28 -85.466,9.637 -82.854,-1.153 c 2.932,-12.132 10.971,-22.857 21.502,-28.688 6.773,-3.752 14.611,-5.388 19.794,-6.097 v -23.131 h 5.36 v 23.175 c 5.183,0.738 12.837,2.382 19.466,6.053 10.534,5.831 18.574,16.556 21.505,28.688 2.61,10.79 0.897,21.432 -4.823,29.967"
               style="fill:#41915e;fill-opacity:1;fill-rule:nonzero;stroke:none"
               id="path17892" />
          </g>
          <g
             id="g17894"
             transform="translate(476.2197,351.8037)">
            <path
               d="M 0,0 -0.107,0.401 -0.8,0.089 c -1.057,-0.496 -2.102,-1.02 -3.148,-1.543 L -5.337,-2.147 -5.27,-2.42 c 1.264,-5.186 1.239,-10.567 -0.074,-15.994 -2.584,-10.68 -9.707,-20.146 -19.052,-25.319 -0.684,-0.379 -1.455,-0.77 -2.359,-1.195 l -0.331,-0.155 0.169,-0.324 c 0.666,-1.276 1.288,-2.691 1.96,-4.454 l 0.134,-0.349 0.339,0.155 c 0.973,0.444 1.918,0.919 2.804,1.412 10.659,5.899 18.783,16.706 21.732,28.912 C 1.679,-13.012 1.661,-6.188 0,0"
               style="fill:#41915e;fill-opacity:1;fill-rule:nonzero;stroke:none"
               id="path17896" />
          </g>
          <g
             id="g17898"
             transform="translate(387.0898,312.3965)">
            <path
               d="m 0,0 -5.154,4.247 c 7.387,8.971 14.021,18.71 20.437,28.126 4.175,6.132 8.456,12.415 12.99,18.565 L 5.961,48.812 9.268,54.445 c 3.938,6.716 8.132,13.895 12.324,21.073 4.131,7.074 8.26,14.144 12.143,20.764 l 5.76,-3.378 C 35.613,86.288 31.484,79.218 27.357,72.148 24.316,66.94 21.271,61.732 18.328,56.699 l 24.63,2.349 -4.796,-6.123 C 32.004,45.061 26.31,36.7 20.801,28.616 14.302,19.074 7.581,9.205 0,0"
               style="fill:#41915e;fill-opacity:1;fill-rule:nonzero;stroke:none"
               id="path17900" />
          </g>
          <g
             id="g17902"
             transform="translate(391.4629,433.7803)">
            <path
               d="m 0,0 -36.836,-61.572 -4.899,2.931 36.836,61.573 z"
               style="fill:#41915e;fill-opacity:1;fill-rule:nonzero;stroke:none"
               id="path17904" />
          </g>
          <g
             id="g17906"
             transform="translate(360,285.7432)">
            <path
               d="m 0,0 -72,0.008 v 5.71 L 0,5.71 Z"
               style="fill:#41915e;fill-opacity:1;fill-rule:nonzero;stroke:none"
               id="path17908" />
          </g>
          <g
             id="g17910"
             transform="translate(479,176.3604)">
            <path
               d="M 0,0 -72,0.007 V 5.718 L 0,5.71 Z"
               style="fill:#41915e;fill-opacity:1;fill-rule:nonzero;stroke:none"
               id="path17912" />
          </g>
        </g>
      </g>
    </g>
  </g>
</svg>
